<?xml version="1.0" encoding="UTF-8"?><svg id="_レイヤー_1" xmlns="http://www.w3.org/2000/svg" viewBox="0 0 512 512"><defs><style>.cls-1{fill:#fff;}</style></defs><rect x="-.2" y="-.2" width="512.41" height="512.41"/><rect class="cls-1" x="224.82" y="18.56" width="60.71" height="63.75"/><rect class="cls-1" x="24.48" y="18.56" width="60.71" height="63.75"/><rect class="cls-1" x="324.99" y="18.56" width="60.71" height="63.75"/><rect class="cls-1" x="425.17" y="19.47" width="58.99" height="61.94"/><rect class="cls-1" x="124.65" y="18.56" width="60.71" height="63.75"/><path class="cls-1" d="m217.42,174.37c-.29,6.71-.58,10.8-.58,38.53v68.88c0,29.48,0,31.23.58,37.65,1.46,13.43,2.33,16.34,22.18,19.26,9.34,1.17,9.63,10.51-.88,10.51-6.13,0-16.64-.58-32.69-.58-12.26,0-28.31.58-36.19.58-9.34,0-9.63-9.63.29-10.8,20.14-2.63,20.43-5.25,21.6-17.22.58-5.25.58-8.76.58-39.4v-68.88c0-30.65,0-32.4-.58-38.23-1.17-11.09-1.75-15.18-21.01-17.51-11.09-1.17-11.09-10.51-.58-10.51,6.13,0,23.06.58,34.15.58,13.43,0,28.9-.58,35.32-.58,9.34,0,9.92,9.34-.58,10.51-19.26,2.33-21.31,6.42-21.6,17.22Zm139.51-27.73c10.8,0,10.22,9.05.29,10.21-15.18,2.33-19.56,3.79-37.36,18.97-25.1,21.6-60.42,55.46-63.92,58.08-1.46,2.04-.88,2.33.29,4.96,2.63,3.79,51.95,65.96,79.97,88.73,11.67,9.34,16.34,9.63,30.94,11.09,9.63.88,10.8,9.05.29,10.51-6.71,1.46-29.77,1.75-37.94,0-7.3-1.17-15.47-6.42-24.81-16.05-15.76-15.18-36.19-39.99-59.25-69.17-6.71-7.88-13.13-16.64-16.93-19.26-1.17-1.17-3.79-5.55,2.33-8.46,4.67-2.33,4.67-2.04,10.8-6.13,9.34-6.42,33.57-29.77,53.41-50.2,7.59-7.3,14.3-13.72,14.3-16.64,0-3.5-3.5-4.09-15.76-6.13-10.22-1.46-9.92-10.51,1.46-10.51,6.71,0,17.22.58,35.02.58,10.22,0,19.85-.58,26.85-.58Z"/><rect class="cls-1" x="225.68" y="416.8" width="60.71" height="63.75"/><rect class="cls-1" x="25.34" y="416.8" width="60.71" height="63.75"/><rect class="cls-1" x="325.86" y="416.8" width="60.71" height="63.75"/><rect class="cls-1" x="426.03" y="417.71" width="58.99" height="61.94"/><rect class="cls-1" x="125.51" y="416.8" width="60.71" height="63.75"/></svg>