<?xml version="1.0" encoding="UTF-8"?><svg id="_レイヤー_1" xmlns="http://www.w3.org/2000/svg" viewBox="0 0 500 200"><defs><style>.cls-1{fill:#fff;}.cls-2{fill:#ff5559;}</style></defs><path class="cls-2" d="m172.61,182.08H8.45V17.92h164.16v164.16Zm-152.43-11.73h140.71V29.65H20.18v140.71Z"/><path class="cls-2" d="m171.64,110.25c-47.95,0-86.97-39.01-86.97-86.97h11.73c0,41.49,33.75,75.24,75.24,75.24v11.73Z"/><path class="cls-2" d="m9.43,110.25v-11.73c41.49,0,75.24-33.75,75.24-75.24h11.73c0,47.95-39.01,86.97-86.96,86.97Z"/><path class="cls-2" d="m171.33,83.44c-33.17,0-60.15-26.98-60.15-60.15h11.73c0,26.7,21.72,48.43,48.43,48.43v11.73Z"/><path class="cls-2" d="m9.43,83.44v-11.73c26.7,0,48.43-21.72,48.43-48.43h11.73c0,33.17-26.98,60.15-60.15,60.15Z"/><path class="cls-2" d="m15.47,56.86v-11.73c11.77,0,21.35-9.58,21.35-21.35h11.73c0,18.24-14.84,33.08-33.08,33.08Z"/><path class="cls-2" d="m167.4,56.36c-18.24,0-33.07-14.84-33.07-33.08h11.73c0,11.77,9.58,21.35,21.35,21.35v11.73Z"/><rect class="cls-2" x="36.25" y="98.85" width="11.73" height="77.37"/><rect class="cls-2" x="134.33" y="98.85" width="11.73" height="77.37"/><rect class="cls-2" x="57.86" y="83.11" width="11.73" height="94.77"/><rect class="cls-2" x="111.17" y="84.61" width="11.73" height="94.77"/><path class="cls-1" d="m250.98,46.5h8.12v43.08h-8.12v-43.08Zm4.89,26.25l17.27-26.25h10.22l-26.46,36.8-1.04-10.55Zm7.17-4.98l6.99-4.42,15.14,26.22h-9.63l-12.5-21.81Z"/><path class="cls-1" d="m310.47,89.58h-8.41v-43.08h8.41v43.08Z"/><path class="cls-1" d="m331.49,46.47h8.12v43.11h-8.12v-43.11Zm3.23,17.96h14.99c.83,0,1.56-.21,2.19-.62.63-.42,1.12-1.01,1.47-1.78s.53-1.66.55-2.67c0-1.01-.17-1.9-.52-2.67-.35-.77-.83-1.36-1.47-1.78-.63-.41-1.37-.62-2.22-.62h-14.99v-7.82h15.64c2.37,0,4.45.53,6.25,1.6,1.8,1.07,3.19,2.57,4.18,4.52.99,1.95,1.48,4.2,1.48,6.77s-.49,4.82-1.48,6.77c-.99,1.95-2.38,3.45-4.19,4.52-1.81,1.07-3.89,1.6-6.24,1.6h-15.64v-7.82Zm9.07,6.49l8.68-1.36,11.61,20.03h-9.84l-10.46-18.67Z"/><path class="cls-1" d="m397.47,72.96v16.62h-8.12v-16.62l-12.68-26.46h8.5l8.24,18.55,8.24-18.55h8.5l-12.68,26.46Z"/><path class="cls-1" d="m431.56,88.14c-2.35-1.25-4.14-3.08-5.36-5.48s-1.84-5.29-1.84-8.67v-27.5h8.12v27.71c0,2.47.66,4.39,1.99,5.75,1.32,1.36,3.19,2.04,5.6,2.04s4.31-.68,5.64-2.04c1.33-1.36,2-3.28,2-5.75v-27.71h8.12v27.5c0,3.38-.62,6.27-1.85,8.67s-3.03,4.23-5.39,5.48c-2.36,1.25-5.2,1.88-8.52,1.88s-6.15-.63-8.5-1.88Z"/><path class="cls-1" d="m224.59,151.65c-2.33-1.25-4.11-3.08-5.33-5.48s-1.84-5.3-1.84-8.7v-11.82c0-3.4.61-6.3,1.84-8.7,1.22-2.4,3-4.23,5.33-5.5,2.33-1.26,5.14-1.9,8.42-1.9,2.71,0,5.13.58,7.26,1.75,2.13,1.17,3.9,2.86,5.29,5.08,1.39,2.22,2.36,4.9,2.89,8.05h-8.41c-.32-1.42-.81-2.64-1.47-3.64s-1.46-1.78-2.4-2.31c-.94-.53-1.99-.8-3.16-.8-1.52,0-2.81.31-3.88.93-1.07.62-1.88,1.53-2.44,2.73-.56,1.2-.84,2.63-.84,4.31v11.82c0,1.68.28,3.11.84,4.3.56,1.19,1.38,2.09,2.44,2.71,1.07.62,2.36.93,3.88.93,1.18,0,2.25-.26,3.2-.79s1.75-1.29,2.4-2.3c.65-1.01,1.13-2.23,1.42-3.67h8.41c-.55,3.14-1.53,5.82-2.92,8.05s-3.15,3.92-5.27,5.08c-2.12,1.17-4.54,1.75-7.24,1.75-3.28,0-6.08-.63-8.42-1.88Z"/><path class="cls-1" d="m275.21,153.09h-8.41v-43.08h8.41v43.08Z"/><path class="cls-1" d="m296.24,110h9.93l16.03,33.01-.71.77v-33.78h7.76v43.05h-9.99l-15.97-32.5.71-.77v33.27h-7.76v-43.05Z"/><path class="cls-1" d="m350.87,110h8.12v43.08h-8.12v-43.08Zm2.93,0h25.93v7.82h-25.93v-7.82Zm0,17.78h22.67v7.82h-22.67v-7.82Zm0,17.48h25.93v7.82h-25.93v-7.82Z"/><path class="cls-1" d="m426.38,110h10.7v43.08h-7.38v-33.45l.3,1.9-8.24,26.76h-7.17l-8.24-26.16.3-2.49v33.45h-7.38v-43.08h10.7l8.21,29.04,8.21-29.04Z"/><path class="cls-1" d="m470.43,110h5.15l16.48,43.08h-8.74l-10.31-29.42-10.31,29.42h-8.74l16.47-43.08Zm-8.56,28.36h22.67v7.82h-22.67v-7.82Z"/></svg>